<?xml version="1.0" standalone="no"?><!DOCTYPE svg PUBLIC "-//W3C//DTD SVG 1.1//EN" "http://www.w3.org/Graphics/SVG/1.1/DTD/svg11.dtd"><svg t="1714388544056" class="icon" viewBox="0 0 1024 1024" version="1.1" xmlns="http://www.w3.org/2000/svg" p-id="7571" xmlns:xlink="http://www.w3.org/1999/xlink" width="200" height="200"><path d="M41.379036 140.532734c-31.686495 9.158933-45.339563 34.985986-40.390326 58.25309A34.473996 34.473996 0 0 0 0.021618 207.09144v576.842117a85.331674 85.331674 0 0 0 58.366865 80.951315l398.214479 132.719197A85.331674 85.331674 0 0 0 568.899445 916.652754V410.863478a85.331674 85.331674 0 0 0-1.991072-18.374754l420.571378-156.100076c49.947473-18.488529 48.297728-78.675804-2.673726-95.230148L560.650717 3.490065a72.076821 72.076821 0 0 0-41.869408-0.682653L41.379036 140.532734zM510.53258 329.969051L83.646658 187.57893 534.539224 57.476571a15.189038 15.189038 0 0 1 8.533168 0.113776l406.861422 132.093431L543.299943 340.550178a15.018375 15.018375 0 0 1-9.386484 0.113776l-3.583931-1.137756a85.331674 85.331674 0 0 0-19.853836-9.670923zM56.909401 243.215182l446.569094 147.339357a28.443891 28.443891 0 0 1 8.533167 20.308939v505.789276a28.443891 28.443891 0 0 1-37.432161 27.021697L398.236097 918.188724v-255.995022l-227.551131-75.831415v255.995023l-94.319944-31.458944A28.443891 28.443891 0 0 1 56.909401 783.933557V243.215182zM227.572749 861.300941v-196.035299l113.775565 37.944151v196.035299l-113.775565-37.944151z" p-id="7572" fill="#1296db"></path><path d="M836.89779 428.555578A25.258176 25.258176 0 0 0 796.450576 448.864517V568.897738l-142.219457 56.887783v199.107239l142.219457-56.887782v103.877091c0 25.940829 34.360221 35.042874 47.21686 12.515312l169.241153-296.157797a25.315063 25.315063 0 0 0-6.769646-32.767363l-169.241153-126.859755z" p-id="7573" fill="#1296db"></path></svg>